<svg width="516" height="272" viewBox="0 0 516 272" xmlns="http://www.w3.org/2000/svg" lang="en" xml:lang="en"><rect x="2" y="2" stroke-width="4" rx="0" width="512" height="268" stroke="#ffffff" fill="#ffffff"/><g font-weight="600" font-size="110pt" font-family="Verdana,Geneva,DejaVu Sans,sans-serif" text-rendering="geometricPrecision"><g transform="translate(0, 21)" fill="#24292f"><g transform="translate(15, 0)"><g transform="scale(0.095)"><text x="0" y="132" textLength="3652" lengthAdjust="spacingAndGlyphs">Language Distribution in Public Repositories</text></g></g><g transform="translate(273, 21)"><circle cx="102" cy="102" r="102" fill="#000000"/></g><g transform="translate(274, 22)"><g><path fill-rule="evenodd" fill="#3572A5" d="M 0.0,101.00000000000001 A 101 101 0 1 1 197.03878394963152 132.26582763139336 L 101,101 Z"/><path fill-rule="evenodd" fill="#DA5B0B" d="M 197.03878394963152,132.26582763139336 A 101 101 0 0 1 21.500586730634552 163.29641474295806 L 101,101 Z"/><path fill-rule="evenodd" fill="#844FBA" d="M 21.500586730634552,163.29641474295806 A 101 101 0 0 1 0.3255095055778412 109.10228138788719 L 101,101 Z"/><path fill-rule="evenodd" fill="#89e051" d="M 0.3255095055778412,109.10228138788719 A 101 101 0 0 1 0.005244779794324472 102.0292803363217 L 101,101 Z"/><path fill-rule="evenodd" fill="#959da5" d="M 0.005244779794324472,102.0292803363217 A 101 101 0 0 1 0.0 101.00000000000004 L 101,101 Z"/><animateTransform attributeName="transform" attributeType="XML" type="rotate" from="0 101 101" to="360 101 101" dur="10s" repeatCount="indefinite"/></g></g><g transform="translate(15, 21)"><rect x="0.5" y="0.5" rx="2" width="15" height="15" fill="#3572A5" stroke-width="1" stroke="#000000"/><text transform="scale(0.095)" x="263" y="132" textLength="1254" lengthAdjust="spacingAndGlyphs">Python 55.01%</text></g><g transform="translate(15, 42)"><rect x="0.5" y="0.5" rx="2" width="15" height="15" fill="#DA5B0B" stroke-width="1" stroke="#000000"/><text transform="scale(0.095)" x="263" y="132" textLength="2126" lengthAdjust="spacingAndGlyphs">Jupyter Notebook 34.41%</text></g><g transform="translate(15, 63)"><rect x="0.5" y="0.5" rx="2" width="15" height="15" fill="#844FBA" stroke-width="1" stroke="#000000"/><text transform="scale(0.095)" x="263" y="132" textLength="909" lengthAdjust="spacingAndGlyphs">HCL 9.30%</text></g><g transform="translate(15, 84)"><rect x="0.5" y="0.5" rx="2" width="15" height="15" fill="#89e051" stroke-width="1" stroke="#000000"/><text transform="scale(0.095)" x="263" y="132" textLength="982" lengthAdjust="spacingAndGlyphs">Shell 1.12%</text></g><g transform="translate(15, 105)"><rect x="0.5" y="0.5" rx="2" width="15" height="15" fill="#959da5" stroke-width="1" stroke="#000000"/><text transform="scale(0.095)" x="263" y="132" textLength="1047" lengthAdjust="spacingAndGlyphs">Other 0.16%</text></g></g></g></svg>